<svg width="176" height="72" viewBox="0 0 176 72" fill="none" xmlns="http://www.w3.org/2000/svg">
<rect width="176" height="72" fill="#9D78F3"/>
<path d="M22.188 36.328C22.188 43.888 27.444 49.18 34.896 49.18C40.908 49.18 45.444 45.832 46.884 40.36H40.116C39.072 42.52 37.164 43.6 34.824 43.6C31.044 43.6 28.452 40.792 28.452 36.328C28.452 31.864 31.044 29.056 34.824 29.056C37.164 29.056 39.072 30.136 40.116 32.296H46.884C45.444 26.824 40.908 23.44 34.896 23.44C27.444 23.44 22.188 28.768 22.188 36.328ZM50.6539 49H56.8099V38.092C56.8099 35.356 58.3219 33.844 60.6619 33.844C63.0019 33.844 64.5139 35.356 64.5139 38.092V49H70.6339V37.264C70.6339 31.864 67.5739 28.696 63.0019 28.696C60.2299 28.696 58.0339 29.884 56.8099 31.612V22.36H50.6539V49ZM94.5677 38.956C94.5677 32.584 90.0317 28.624 84.1277 28.624C78.2597 28.624 73.6877 32.584 73.6877 38.956C73.6877 45.328 78.1517 49.288 84.0557 49.288C89.9597 49.288 94.5677 45.328 94.5677 38.956ZM79.9517 38.956C79.9517 35.536 81.8957 33.952 84.1277 33.952C86.2877 33.952 88.3037 35.536 88.3037 38.956C88.3037 42.34 86.2517 43.96 84.0557 43.96C81.8237 43.96 79.9517 42.34 79.9517 38.956ZM103.99 39.676C103.99 36.22 105.682 35.212 108.598 35.212H110.29V28.696C107.59 28.696 105.394 30.136 103.99 32.26V28.912H97.8336V49H103.99V39.676ZM122.088 33.556C124.14 33.556 125.868 34.816 125.868 37.012H118.164C118.524 34.78 120.072 33.556 122.088 33.556ZM131.7 42.34H125.148C124.644 43.42 123.672 44.284 121.944 44.284C119.964 44.284 118.344 43.06 118.128 40.432H132.06C132.132 39.82 132.168 39.208 132.168 38.632C132.168 32.512 128.028 28.624 122.16 28.624C116.184 28.624 112.008 32.584 112.008 38.956C112.008 45.328 116.256 49.288 122.16 49.288C127.164 49.288 130.728 46.264 131.7 42.34ZM151.724 43.168C151.616 35.68 140.744 37.948 140.744 34.744C140.744 33.772 141.536 33.196 142.976 33.196C144.704 33.196 145.748 34.096 145.928 35.464H151.616C151.22 31.504 148.34 28.624 143.156 28.624C137.9 28.624 134.984 31.432 134.984 34.852C134.984 42.232 145.928 39.892 145.928 43.132C145.928 44.032 145.1 44.752 143.516 44.752C141.824 44.752 140.564 43.816 140.42 42.412H134.336C134.624 46.3 138.224 49.288 143.588 49.288C148.628 49.288 151.724 46.66 151.724 43.168Z" fill="white"/>
</svg>
